{
    "asset" : {
        "generator" : "Khronos glTF Blender I/O v3.4.50",
        "version" : "2.0"
    },
    "scene" : 0,
    "scenes" : [
        {
            "name" : "Scene",
            "nodes" : [
                0,
                1,
                2,
                3,
                4,
                5,
                6
            ]
        }
    ],
    "nodes" : [
        {
            "mesh" : 0,
            "name" : "Plane",
            "scale" : [
                2.351235866546631,
                1,
                1
            ]
        },
        {
            "mesh" : 1,
            "name" : "Cylinder",
            "rotation" : [
                0.025404974818229675,
                0.025404974818229675,
                -0.7066501975059509,
                0.7066503763198853
            ],
            "scale" : [
                1.1747262477874756,
                2.349452257156372,
                1.1747262477874756
            ],
            "translation" : [
                0,
                1.383247971534729,
                0
            ]
        },
        {
            "mesh" : 2,
            "name" : "Cube",
            "scale" : [
                0.059065282344818115,
                1.6306463479995728,
                0.059065282344818115
            ],
            "translation" : [
                -2.016108274459839,
                1.0143243074417114,
                -0.7588925361633301
            ]
        },
        {
            "mesh" : 3,
            "name" : "Plane.001",
            "scale" : [
                2.351235866546631,
                1,
                1
            ],
            "translation" : [
                0,
                1.5492274761199951,
                0
            ]
        },
        {
            "mesh" : 4,
            "name" : "Cube.001",
            "rotation" : [
                0,
                0.28847622871398926,
                0,
                0.9574870467185974
            ],
            "scale" : [
                0.0479668453335762,
                0.0479668453335762,
                0.0479668453335762
            ],
            "translation" : [
                -0.04194729030132294,
                0.13107536733150482,
                0.5243203043937683
            ]
        },
        {
            "mesh" : 5,
            "name" : "Cube.002",
            "rotation" : [
                0,
                -0.4232250154018402,
                0,
                0.9060245752334595
            ],
            "scale" : [
                0.0479668453335762,
                0.0479668453335762,
                0.0479668453335762
            ],
            "translation" : [
                -1.3270665407180786,
                0.13107536733150482,
                -0.42213818430900574
            ]
        },
        {
            "mesh" : 6,
            "name" : "Cube.003",
            "rotation" : [
                0,
                0.9957729578018188,
                0,
                0.0918492004275322
            ],
            "scale" : [
                0.041538722813129425,
                0.041538722813129425,
                0.041538722813129425
            ],
            "translation" : [
                1.2636359930038452,
                0.13107536733150482,
                -0.42213818430900574
            ]
        }
    ],
    "meshes" : [
        {
            "name" : "Plane",
            "primitives" : [
                {
                    "attributes" : {
                        "POSITION" : 0,
                        "TEXCOORD_0" : 1,
                        "NORMAL" : 2
                    },
                    "indices" : 3
                }
            ]
        },
        {
            "name" : "Cylinder",
            "primitives" : [
                {
                    "attributes" : {
                        "POSITION" : 4,
                        "TEXCOORD_0" : 5,
                        "NORMAL" : 6
                    },
                    "indices" : 7
                }
            ]
        },
        {
            "name" : "Cube.001",
            "primitives" : [
                {
                    "attributes" : {
                        "POSITION" : 8,
                        "TEXCOORD_0" : 9,
                        "NORMAL" : 10
                    },
                    "indices" : 11
                }
            ]
        },
        {
            "name" : "Plane.001",
            "primitives" : [
                {
                    "attributes" : {
                        "POSITION" : 12,
                        "TEXCOORD_0" : 13,
                        "NORMAL" : 14
                    },
                    "indices" : 15
                }
            ]
        },
        {
            "name" : "Cube.003",
            "primitives" : [
                {
                    "attributes" : {
                        "POSITION" : 16,
                        "TEXCOORD_0" : 17,
                        "NORMAL" : 18
                    },
                    "indices" : 19
                }
            ]
        },
        {
            "name" : "Cube.004",
            "primitives" : [
                {
                    "attributes" : {
                        "POSITION" : 20,
                        "TEXCOORD_0" : 21,
                        "NORMAL" : 22
                    },
                    "indices" : 19
                }
            ]
        },
        {
            "name" : "Cube.005",
            "primitives" : [
                {
                    "attributes" : {
                        "POSITION" : 23,
                        "TEXCOORD_0" : 24,
                        "NORMAL" : 25
                    },
                    "indices" : 19
                }
            ]
        }
    ],
    "accessors" : [
        {
            "bufferView" : 0,
            "componentType" : 5126,
            "count" : 20,
            "max" : [
                1,
                1.991573691368103,
                1
            ],
            "min" : [
                -1,
                0,
                -1
            ],
            "type" : "VEC3"
        },
        {
            "bufferView" : 1,
            "componentType" : 5126,
            "count" : 20,
            "type" : "VEC2"
        },
        {
            "bufferView" : 2,
            "componentType" : 5126,
            "count" : 20,
            "type" : "VEC3"
        },
        {
            "bufferView" : 3,
            "componentType" : 5123,
            "count" : 30,
            "type" : "SCALAR"
        },
        {
            "bufferView" : 4,
            "componentType" : 5126,
            "count" : 44,
            "max" : [
                -0.3826834559440613,
                1,
                0.8314695954322815
            ],
            "min" : [
                -1,
                -1,
                -0.9238795042037964
            ],
            "type" : "VEC3"
        },
        {
            "bufferView" : 5,
            "componentType" : 5126,
            "count" : 44,
            "type" : "VEC2"
        },
        {
            "bufferView" : 6,
            "componentType" : 5126,
            "count" : 44,
            "type" : "VEC3"
        },
        {
            "bufferView" : 7,
            "componentType" : 5123,
            "count" : 66,
            "type" : "SCALAR"
        },
        {
            "bufferView" : 8,
            "componentType" : 5126,
            "count" : 640,
            "max" : [
                69.97377014160156,
                0.809211254119873,
                30.25271987915039
            ],
            "min" : [
                -1,
                -0.6217683553695679,
                -4.580215930938721
            ],
            "type" : "VEC3"
        },
        {
            "bufferView" : 9,
            "componentType" : 5126,
            "count" : 640,
            "type" : "VEC2"
        },
        {
            "bufferView" : 10,
            "componentType" : 5126,
            "count" : 640,
            "type" : "VEC3"
        },
        {
            "bufferView" : 11,
            "componentType" : 5123,
            "count" : 1056,
            "type" : "SCALAR"
        },
        {
            "bufferView" : 12,
            "componentType" : 5126,
            "count" : 48,
            "max" : [
                1,
                0,
                1
            ],
            "min" : [
                -1,
                -0.13298837840557098,
                -1
            ],
            "type" : "VEC3"
        },
        {
            "bufferView" : 13,
            "componentType" : 5126,
            "count" : 48,
            "type" : "VEC2"
        },
        {
            "bufferView" : 14,
            "componentType" : 5126,
            "count" : 48,
            "type" : "VEC3"
        },
        {
            "bufferView" : 15,
            "componentType" : 5123,
            "count" : 72,
            "type" : "SCALAR"
        },
        {
            "bufferView" : 16,
            "componentType" : 5126,
            "count" : 987,
            "max" : [
                3.687934637069702,
                2.5387799739837646,
                4.391782760620117
            ],
            "min" : [
                -6.997758388519287,
                -3.0416007041931152,
                -4.673696517944336
            ],
            "type" : "VEC3"
        },
        {
            "bufferView" : 17,
            "componentType" : 5126,
            "count" : 987,
            "type" : "VEC2"
        },
        {
            "bufferView" : 18,
            "componentType" : 5126,
            "count" : 987,
            "type" : "VEC3"
        },
        {
            "bufferView" : 19,
            "componentType" : 5123,
            "count" : 1716,
            "type" : "SCALAR"
        },
        {
            "bufferView" : 20,
            "componentType" : 5126,
            "count" : 987,
            "max" : [
                3.687934637069702,
                2.5387799739837646,
                4.391782760620117
            ],
            "min" : [
                -6.997758388519287,
                -3.0416007041931152,
                -4.673696517944336
            ],
            "type" : "VEC3"
        },
        {
            "bufferView" : 21,
            "componentType" : 5126,
            "count" : 987,
            "type" : "VEC2"
        },
        {
            "bufferView" : 22,
            "componentType" : 5126,
            "count" : 987,
            "type" : "VEC3"
        },
        {
            "bufferView" : 23,
            "componentType" : 5126,
            "count" : 987,
            "max" : [
                3.687934637069702,
                2.5387799739837646,
                4.391782760620117
            ],
            "min" : [
                -6.997758388519287,
                -3.0416007041931152,
                -4.673696517944336
            ],
            "type" : "VEC3"
        },
        {
            "bufferView" : 24,
            "componentType" : 5126,
            "count" : 987,
            "type" : "VEC2"
        },
        {
            "bufferView" : 25,
            "componentType" : 5126,
            "count" : 987,
            "type" : "VEC3"
        }
    ],
    "bufferViews" : [
        {
            "buffer" : 0,
            "byteLength" : 240,
            "byteOffset" : 0,
            "target" : 34962
        },
        {
            "buffer" : 0,
            "byteLength" : 160,
            "byteOffset" : 240,
            "target" : 34962
        },
        {
            "buffer" : 0,
            "byteLength" : 240,
            "byteOffset" : 400,
            "target" : 34962
        },
        {
            "buffer" : 0,
            "byteLength" : 60,
            "byteOffset" : 640,
            "target" : 34963
        },
        {
            "buffer" : 0,
            "byteLength" : 528,
            "byteOffset" : 700,
            "target" : 34962
        },
        {
            "buffer" : 0,
            "byteLength" : 352,
            "byteOffset" : 1228,
            "target" : 34962
        },
        {
            "buffer" : 0,
            "byteLength" : 528,
            "byteOffset" : 1580,
            "target" : 34962
        },
        {
            "buffer" : 0,
            "byteLength" : 132,
            "byteOffset" : 2108,
            "target" : 34963
        },
        {
            "buffer" : 0,
            "byteLength" : 7680,
            "byteOffset" : 2240,
            "target" : 34962
        },
        {
            "buffer" : 0,
            "byteLength" : 5120,
            "byteOffset" : 9920,
            "target" : 34962
        },
        {
            "buffer" : 0,
            "byteLength" : 7680,
            "byteOffset" : 15040,
            "target" : 34962
        },
        {
            "buffer" : 0,
            "byteLength" : 2112,
            "byteOffset" : 22720,
            "target" : 34963
        },
        {
            "buffer" : 0,
            "byteLength" : 576,
            "byteOffset" : 24832,
            "target" : 34962
        },
        {
            "buffer" : 0,
            "byteLength" : 384,
            "byteOffset" : 25408,
            "target" : 34962
        },
        {
            "buffer" : 0,
            "byteLength" : 576,
            "byteOffset" : 25792,
            "target" : 34962
        },
        {
            "buffer" : 0,
            "byteLength" : 144,
            "byteOffset" : 26368,
            "target" : 34963
        },
        {
            "buffer" : 0,
            "byteLength" : 11844,
            "byteOffset" : 26512,
            "target" : 34962
        },
        {
            "buffer" : 0,
            "byteLength" : 7896,
            "byteOffset" : 38356,
            "target" : 34962
        },
        {
            "buffer" : 0,
            "byteLength" : 11844,
            "byteOffset" : 46252,
            "target" : 34962
        },
        {
            "buffer" : 0,
            "byteLength" : 3432,
            "byteOffset" : 58096,
            "target" : 34963
        },
        {
            "buffer" : 0,
            "byteLength" : 11844,
            "byteOffset" : 61528,
            "target" : 34962
        },
        {
            "buffer" : 0,
            "byteLength" : 7896,
            "byteOffset" : 73372,
            "target" : 34962
        },
        {
            "buffer" : 0,
            "byteLength" : 11844,
            "byteOffset" : 81268,
            "target" : 34962
        },
        {
            "buffer" : 0,
            "byteLength" : 11844,
            "byteOffset" : 93112,
            "target" : 34962
        },
        {
            "buffer" : 0,
            "byteLength" : 7896,
            "byteOffset" : 104956,
            "target" : 34962
        },
        {
            "buffer" : 0,
            "byteLength" : 11844,
            "byteOffset" : 112852,
            "target" : 34962
        }
    ],
    "buffers" : [
        {
            "byteLength" : 124696,
            "uri" : "data:application/octet-stream;base64,"
        }
    ]
}
